<?xml version="1.0" standalone="no"?>
<svg xmlns="http://www.w3.org/2000/svg" viewBox="0 0 96 73" width="96" height="73"><g fill="#f29b18" color="#f29b18" transform="translate(25.804 0) scale(0.44) "><svg width="100.0" height="95.76" x="0.0" y="0.0" viewBox="0 0 100 95.76"><path d="M-0.068,17.242l4.131,22.594l94.305-17.242L94.236,0L-0.068,17.242z M48.314,14.487l10.5-1.92l-8.83,12.781l-10.499,1.92  L48.314,14.487z M28.372,29.301L17.873,31.22l8.83-12.781l10.499-1.92L28.372,29.301z M69.927,10.535l10.499-1.919l-8.83,12.781  l-10.499,1.919L69.927,10.535z M15.591,20.47l-7.1,10.276l-1.589-8.688L15.591,20.47z M82.708,19.366l7.1-10.277l1.589,8.688  L82.708,19.366z"></path><path d="M4.062,39.836V95.76h95.869V39.836H4.062z M91.942,70.794H12.124V47.825h79.818V70.794z"></path></svg></g><path fill="#f29b18" fill-rule="nonzero" d="M5.09 22.08L5.09 22.08Q3.91 22.08 2.96 21.52Q2.02 20.95 1.35 19.97Q0.68 18.98 0.34 17.66Q0 16.34 0.05 14.84L0.05 14.84Q0.09 13.43 0.41 11.79Q0.73 10.15 1.31 8.50Q1.90 6.84 2.73 5.31Q3.56 3.77 4.64 2.60Q5.72 1.43 7.03 0.71Q8.34 0 9.91 0L9.91 0Q10.88 0 11.54 0.39Q12.21 0.77 12.62 1.41Q13.03 2.04 13.20 2.84Q13.36 3.63 13.34 4.45L13.34 4.45Q13.29 5.23 13.11 5.95Q12.94 6.68 12.62 7.25Q12.30 7.83 11.85 8.17Q11.39 8.51 10.80 8.51L10.80 8.51Q10.52 8.48 10.27 8.32L10.27 8.32Q10.03 8.18 9.79 7.90Q9.54 7.62 9.33 7.08L9.33 7.08Q9.96 6.82 10.32 6.18Q10.69 5.53 10.88 4.83L10.88 4.83Q11.09 4.03 11.16 3.05L11.16 3.05Q11.20 2.09 10.76 1.64Q10.31 1.20 9.75 1.20L9.75 1.20Q8.65 1.20 7.43 2.34Q6.21 3.49 5.17 5.45Q4.13 7.41 3.41 10.01Q2.70 12.61 2.58 15.52L2.58 15.52Q2.53 16.83 2.75 17.74Q2.98 18.66 3.39 19.24Q3.80 19.83 4.31 20.09Q4.83 20.34 5.34 20.34L5.34 20.34Q6.16 20.34 6.89 19.99Q7.62 19.64 8.21 19.13Q8.81 18.61 9.25 18.06Q9.68 17.51 9.91 17.09L9.91 17.09Q10.08 16.78 10.27 16.71Q10.45 16.64 10.59 16.75Q10.73 16.85 10.78 17.07Q10.83 17.30 10.69 17.60L10.69 17.60Q10.29 18.40 9.71 19.20Q9.14 19.99 8.43 20.64Q7.71 21.28 6.87 21.68Q6.02 22.08 5.09 22.08ZM18.38 3.91L18.38 3.91Q18.30 4.17 18.11 4.42Q17.91 4.66 17.66 4.82Q17.41 4.97 17.16 5.02Q16.90 5.06 16.73 4.92L16.73 4.92Q16.24 4.55 16.22 4.11Q16.20 3.68 16.43 3.29Q16.66 2.91 17.02 2.64Q17.37 2.37 17.63 2.32L17.63 2.32Q17.88 2.27 18.06 2.43Q18.23 2.58 18.33 2.82Q18.42 3.07 18.43 3.38Q18.45 3.68 18.38 3.91ZM15.14 8.91L15.14 8.91Q15.26 8.77 15.59 8.67Q15.91 8.58 16.27 8.52Q16.62 8.46 16.91 8.45Q17.20 8.44 17.25 8.46L17.25 8.46Q17.27 8.48 17.13 8.95Q16.99 9.42 16.78 10.05Q16.57 10.69 16.34 11.36Q16.10 12.02 15.98 12.45L15.98 12.45Q15.87 12.87 15.70 13.39Q15.54 13.92 15.41 14.43Q15.28 14.93 15.23 15.38Q15.19 15.82 15.30 16.05L15.30 16.05Q15.42 16.34 15.56 16.44Q15.70 16.55 15.87 16.55L15.87 16.55Q16.34 16.55 17.05 16.03Q17.77 15.52 18.50 14.80Q19.24 14.09 19.88 13.35Q20.51 12.61 20.81 12.16L20.81 12.16Q21 11.93 21.20 11.86Q21.40 11.79 21.53 11.88Q21.66 11.98 21.67 12.19Q21.68 12.40 21.52 12.68L21.52 12.68Q21.14 13.34 20.41 14.24Q19.69 15.14 18.87 15.97Q18.05 16.80 17.26 17.39Q16.48 17.98 15.98 18L15.98 18Q15.59 18.02 15.20 17.87Q14.81 17.72 14.50 17.45Q14.18 17.18 13.97 16.82Q13.76 16.45 13.73 16.05L13.73 16.05Q13.66 15.47 13.73 14.45Q13.80 13.43 13.99 12.36Q14.18 11.30 14.47 10.34Q14.77 9.38 15.14 8.91ZM26.77 18.30L26.77 18.30Q26.23 18.30 25.84 18.11Q25.45 17.91 25.22 17.58Q24.98 17.25 24.91 16.82Q24.84 16.38 24.96 15.89L24.96 15.89Q25.03 15.56 25.20 15.01Q25.36 14.46 25.54 13.82Q25.71 13.17 25.86 12.53Q26.02 11.88 26.06 11.36Q26.11 10.83 26.02 10.49Q25.92 10.15 25.62 10.15L25.62 10.15Q25.24 10.15 24.84 10.39Q24.45 10.64 24.04 11.06Q23.63 11.48 23.21 12.04Q22.80 12.59 22.41 13.17L22.41 13.17Q22.20 13.97 22.05 14.57Q21.91 15.16 21.81 15.64Q21.70 16.13 21.61 16.49Q21.52 16.85 21.45 17.18L21.45 17.18Q21.38 17.41 21.02 17.64Q20.67 17.86 20.27 18Q19.88 18.14 19.58 18.14Q19.29 18.14 19.34 17.93L19.34 17.93Q19.36 17.79 19.49 17.30Q19.62 16.80 19.79 16.14Q19.97 15.47 20.16 14.72Q20.34 13.97 20.51 13.29L20.51 13.29Q20.63 12.75 20.77 12.09L20.77 12.09Q20.88 11.53 21.06 10.78Q21.23 10.03 21.47 9.14L21.47 9.14Q21.63 9 21.81 8.92Q21.98 8.84 22.17 8.79L22.17 8.79Q22.36 8.72 22.57 8.70L22.57 8.70Q22.76 8.70 22.95 8.72L22.95 8.72Q23.11 8.74 23.29 8.80Q23.46 8.86 23.60 8.98L23.60 8.98Q23.53 9.14 23.44 9.43Q23.34 9.73 23.25 10.05L23.25 10.05Q23.16 10.43 23.02 10.83L23.02 10.83Q23.32 10.41 23.71 9.97Q24.09 9.54 24.55 9.19Q25.01 8.84 25.52 8.61Q26.04 8.39 26.58 8.39L26.58 8.39Q27.02 8.39 27.38 8.65Q27.73 8.91 27.93 9.36Q28.13 9.82 28.16 10.45Q28.20 11.09 27.98 11.84L27.98 11.84L27.73 12.87Q27.61 13.36 27.43 14.03Q27.26 14.70 27 15.49L27 15.49Q26.86 16.01 26.89 16.38Q26.93 16.76 27.35 16.76L27.35 16.76Q27.77 16.76 28.42 16.24Q29.06 15.73 29.72 15Q30.38 14.27 30.96 13.51Q31.55 12.75 31.85 12.28L31.85 12.28Q32.06 11.98 32.25 11.88Q32.44 11.79 32.54 11.86Q32.65 11.93 32.65 12.18Q32.65 12.42 32.46 12.80L32.46 12.80Q32.30 13.13 31.96 13.66Q31.62 14.20 31.15 14.81Q30.68 15.42 30.14 16.04Q29.60 16.66 29.02 17.17Q28.43 17.67 27.86 17.99Q27.28 18.30 26.77 18.30ZM41.51 12.84L41.51 12.84Q40.80 13.88 39.91 14.85Q39.02 15.82 38.03 16.58Q37.03 17.34 35.99 17.81Q34.95 18.28 33.96 18.28L33.96 18.28Q33.45 18.28 32.85 18.04Q32.25 17.79 31.76 17.27Q31.27 16.76 30.97 15.94Q30.68 15.12 30.80 13.95L30.80 13.95Q30.89 12.98 31.39 11.92Q31.90 10.85 32.64 9.96Q33.38 9.07 34.30 8.48Q35.23 7.90 36.16 7.90L36.16 7.90Q37.05 7.90 37.45 8.34Q37.85 8.79 37.80 9.45L37.80 9.45Q37.73 10.17 37.39 10.78Q37.05 11.39 36.59 11.88Q36.12 12.38 35.59 12.77Q35.06 13.17 34.59 13.50L34.59 13.50Q34.08 13.85 33.61 14.17Q33.14 14.48 32.79 14.74L32.79 14.74Q32.81 15.33 33 15.73Q33.19 16.13 33.47 16.37Q33.75 16.62 34.11 16.72Q34.48 16.83 34.85 16.83L34.85 16.83Q35.65 16.83 36.52 16.32Q37.38 15.82 38.21 15.11Q39.05 14.39 39.76 13.62Q40.48 12.84 40.95 12.28L40.95 12.28Q41.11 12.09 41.29 12.06Q41.46 12.02 41.57 12.11Q41.67 12.19 41.67 12.39Q41.67 12.59 41.51 12.84ZM35.51 9.23L35.51 9.23Q35.23 9.23 34.84 9.52Q34.45 9.80 34.08 10.32Q33.70 10.85 33.38 11.61Q33.05 12.38 32.88 13.36L32.88 13.36Q33.16 13.15 33.49 12.93Q33.82 12.70 34.15 12.45L34.15 12.45Q35.16 11.67 35.55 11.09Q35.95 10.50 36 10.08L36 10.08Q36.05 9.63 35.91 9.43Q35.77 9.23 35.51 9.23ZM40.36 22.10L40.36 22.10Q39.45 22.13 38.85 21.77Q38.25 21.42 37.91 20.75Q37.57 20.09 37.48 19.14Q37.38 18.19 37.48 17.06L37.48 17.06Q37.59 16.20 37.90 15.26L37.90 15.26Q38.16 14.46 38.68 13.50Q39.21 12.54 40.10 11.63L40.10 11.63Q40.29 11.67 40.41 11.73Q40.52 11.79 40.59 11.86L40.59 11.86Q40.66 11.95 40.69 12.02L40.69 12.02Q40.73 12.28 40.55 12.61Q40.36 12.94 40.17 13.31L40.17 13.31Q39.66 14.39 39.40 15.35Q39.14 16.31 39.07 17.13L39.07 17.13Q39.02 17.84 39.08 18.41Q39.14 18.98 39.26 19.39Q39.38 19.80 39.52 20.03Q39.66 20.25 39.77 20.25L39.77 20.25Q39.89 20.25 40.02 20.09Q40.15 19.92 40.27 19.69L40.27 19.69Q40.41 19.45 40.59 18.97Q40.78 18.49 40.99 17.86Q41.20 17.23 41.40 16.49Q41.60 15.75 41.77 15L41.77 15Q42.09 13.50 42.47 11.61Q42.84 9.73 43.57 7.66L43.57 7.66Q43.80 6.80 44.16 5.77L44.16 5.77Q44.44 4.88 44.87 3.69Q45.30 2.51 45.87 1.13L45.87 1.13Q45.87 1.01 46.07 0.90Q46.27 0.80 46.52 0.68L46.52 0.68Q46.80 0.56 47.16 0.45L47.16 0.45Q47.63 0.28 47.89 0.26Q48.16 0.23 48.30 0.33Q48.45 0.42 48.49 0.57Q48.54 0.73 48.54 0.91L48.54 0.91Q48.59 1.69 48.60 2.37Q48.61 3.05 48.63 3.56L48.63 3.56Q48.66 4.17 48.66 4.66L48.66 4.66Q48.68 5.32 48.59 6.41Q48.49 7.50 48.39 8.70Q48.28 9.89 48.20 11.03Q48.12 12.16 48.16 12.91L48.16 12.91Q48.16 13.31 48.20 13.65Q48.23 13.99 48.28 14.32L48.28 14.32Q48.59 13.48 48.96 12.55Q49.34 11.63 49.71 10.77Q50.09 9.91 50.41 9.18Q50.74 8.44 50.93 7.95L50.93 7.95Q51.21 7.29 51.68 6.28Q52.15 5.27 52.63 4.27Q53.11 3.26 53.52 2.41Q53.93 1.57 54.12 1.24L54.12 1.24Q54.26 1.01 54.60 0.82Q54.94 0.63 55.32 0.49Q55.71 0.35 56.05 0.29Q56.39 0.23 56.51 0.28L56.51 0.28Q56.81 0.35 56.94 0.47Q57.07 0.59 57.09 0.63L57.09 0.63Q57.14 0.73 57.16 0.95Q57.19 1.17 57.14 1.64L57.14 1.64Q57.09 2.20 56.87 3.35Q56.65 4.50 56.33 5.96Q56.02 7.43 55.65 9.09Q55.29 10.76 54.96 12.36Q54.63 13.97 54.39 15.38Q54.14 16.78 54.07 17.74L54.07 17.74Q54.02 18.82 54.21 19.64L54.21 19.64Q54.28 19.99 54.42 20.32Q54.56 20.65 54.80 20.89Q55.03 21.14 55.36 21.26Q55.69 21.38 56.13 21.33L56.13 21.33Q55.55 21.73 54.98 21.91Q54.42 22.10 53.88 22.10L53.88 22.10Q53.30 22.13 52.85 21.93Q52.41 21.73 52.10 21.36Q51.80 21 51.66 20.50Q51.52 19.99 51.56 19.38L51.56 19.38Q51.61 18.82 51.87 17.53Q52.13 16.24 52.49 14.61Q52.85 12.98 53.29 11.21Q53.72 9.45 54.11 7.89Q54.49 6.33 54.77 5.20Q55.05 4.08 55.13 3.73L55.13 3.73Q55.17 3.45 55.21 3.20Q55.24 2.95 55.29 2.77L55.29 2.77Q55.05 3.23 54.71 3.89Q54.38 4.55 54 5.30Q53.63 6.05 53.24 6.86Q52.85 7.66 52.50 8.41L52.50 8.41Q51.91 9.63 51.35 10.91Q50.79 12.19 50.34 13.34Q49.90 14.48 49.61 15.40Q49.31 16.31 49.27 16.80L49.27 16.80L49.27 17.13Q49.27 17.27 49.28 17.46Q49.29 17.65 49.34 17.81L49.34 17.81L48.40 18.54Q48.19 18.61 48.04 18.66Q47.88 18.70 47.74 18.70L47.74 18.70Q47.20 18.70 46.92 18.14L46.92 18.14Q46.64 17.63 46.41 16.13Q46.17 14.63 46.27 12.45L46.27 12.45Q46.31 11.37 46.42 10.27Q46.52 9.16 46.63 8.16Q46.73 7.15 46.83 6.27Q46.92 5.39 46.92 4.76L46.92 4.76Q46.95 4.29 46.90 3.90Q46.85 3.52 46.80 3.19L46.80 3.19Q46.59 3.73 46.34 4.65Q46.08 5.58 45.80 6.70Q45.52 7.83 45.22 9.07Q44.93 10.31 44.66 11.46Q44.39 12.61 44.16 13.58Q43.92 14.55 43.78 15.14L43.78 15.14Q43.55 16.08 43.31 17.27Q43.08 18.47 42.73 19.54Q42.38 20.60 41.81 21.34Q41.25 22.08 40.36 22.10ZM69.45 13.05L69.45 13.05Q69.12 13.52 68.60 14.21Q68.09 14.91 67.54 15.60Q66.98 16.29 66.46 16.86Q65.93 17.44 65.58 17.67L65.58 17.67Q65.34 17.81 65.04 17.91Q64.73 18 64.42 18.02Q64.10 18.05 63.82 17.99Q63.54 17.93 63.33 17.79L63.33 17.79Q63.12 17.63 62.98 17.32L62.98 17.32Q62.86 17.06 62.75 16.64Q62.65 16.22 62.67 15.59L62.67 15.59Q62.11 16.52 61.43 17.03Q60.75 17.53 60.14 17.77L60.14 17.77Q59.44 18.02 58.73 18.07L58.73 18.07Q58.41 18.07 58.03 17.85Q57.66 17.63 57.40 17.14Q57.14 16.66 57.07 15.90Q57 15.14 57.26 14.09L57.26 14.09Q57.59 12.66 58.30 11.48Q59.02 10.31 59.86 9.48Q60.70 8.65 61.52 8.23Q62.34 7.80 62.88 7.85L62.88 7.85Q63.52 7.97 63.91 8.23L63.91 8.23Q64.24 8.46 64.35 8.92Q64.45 9.38 63.96 10.13L63.96 10.13Q64.29 10.05 64.51 10.03Q64.73 10.01 64.85 10.01L64.85 10.01Q64.99 10.01 65.04 10.03L65.04 10.03Q65.06 10.08 65.06 10.23Q65.06 10.38 64.99 10.78Q64.92 11.18 64.78 11.86Q64.64 12.54 64.41 13.62L64.41 13.62Q64.36 13.83 64.32 14.00Q64.29 14.18 64.25 14.36Q64.22 14.53 64.17 14.77Q64.13 15 64.05 15.35L64.05 15.35Q64.03 15.56 64.04 15.81Q64.05 16.05 64.13 16.27Q64.20 16.48 64.35 16.61Q64.50 16.73 64.78 16.73L64.78 16.73Q65.02 16.73 65.39 16.44Q65.77 16.15 66.19 15.69Q66.61 15.23 67.07 14.68Q67.52 14.13 67.92 13.62Q68.32 13.10 68.64 12.70Q68.95 12.30 69.09 12.12L69.09 12.12Q69.28 11.91 69.47 11.87Q69.66 11.84 69.75 11.98Q69.84 12.12 69.79 12.40Q69.73 12.68 69.45 13.05ZM62.58 14.09L62.58 14.09Q62.70 13.62 62.86 12.98Q63.02 12.35 63.14 11.77Q63.26 11.18 63.32 10.79Q63.38 10.41 63.28 10.43L63.28 10.43Q63.16 10.45 63.02 10.50L63.02 10.50Q62.91 10.55 62.72 10.57Q62.53 10.59 62.34 10.64L62.34 10.64Q62.53 10.27 62.57 10.02Q62.60 9.77 62.58 9.63L62.58 9.63Q62.55 9.47 62.48 9.38L62.48 9.38Q62.23 9.16 61.58 9.71Q60.94 10.27 60.09 11.74L60.09 11.74Q59.74 12.35 59.53 13.04Q59.32 13.73 59.24 14.34Q59.16 14.95 59.20 15.41Q59.25 15.87 59.39 16.01L59.39 16.01Q59.65 16.27 59.98 16.25Q60.30 16.24 60.64 16.07Q60.98 15.89 61.32 15.61Q61.66 15.33 61.93 15.02Q62.20 14.72 62.38 14.46Q62.55 14.20 62.58 14.09ZM66.98 17.60L66.98 17.60Q66.82 17.86 66.62 17.94Q66.42 18.02 66.27 17.96Q66.12 17.91 66.07 17.72Q66.02 17.53 66.16 17.25L66.16 17.25Q66.23 17.11 66.48 16.62Q66.73 16.13 67.07 15.43Q67.41 14.74 67.80 13.93Q68.20 13.13 68.57 12.40Q68.93 11.67 69.23 11.10Q69.54 10.52 69.68 10.27L69.68 10.27Q69.42 10.03 69.33 9.93Q69.23 9.82 69.19 9.47L69.19 9.47Q69.14 9.16 69.33 8.67Q69.52 8.18 69.82 7.72Q70.13 7.27 70.50 6.94Q70.88 6.61 71.23 6.61L71.23 6.61Q71.88 6.61 72.15 7.03Q72.42 7.45 72.47 7.90L72.47 7.90Q72.52 8.20 72.42 8.67Q72.33 9.14 72.07 9.52L72.07 9.52Q72.14 9.56 72.26 9.62Q72.38 9.68 72.63 9.68L72.63 9.68Q73.01 9.68 73.16 9.63Q73.31 9.59 73.64 9.59L73.64 9.59Q74.04 9.59 74.30 9.79Q74.55 9.98 74.72 10.28Q74.88 10.57 74.96 10.91Q75.05 11.25 75.07 11.53L75.07 11.53Q75.14 12.12 74.77 12.75Q74.39 13.38 73.85 14.13L73.85 14.13Q73.52 14.60 73.20 15.19Q72.87 15.77 72.91 16.24L72.91 16.24Q72.96 16.55 73.08 16.73Q73.20 16.92 73.73 16.92L73.73 16.92Q74.13 16.92 74.61 16.63Q75.09 16.34 75.60 15.88Q76.10 15.42 76.59 14.87Q77.09 14.32 77.51 13.79Q77.93 13.27 78.22 12.84Q78.52 12.42 78.66 12.23L78.66 12.23Q78.77 12.05 78.96 11.98Q79.15 11.91 79.29 11.98Q79.43 12.05 79.46 12.26Q79.50 12.47 79.29 12.82L79.29 12.82Q79.15 13.05 78.81 13.57Q78.47 14.09 77.99 14.72Q77.51 15.35 76.92 16.02Q76.34 16.69 75.69 17.24Q75.05 17.79 74.40 18.14Q73.76 18.49 73.17 18.49L73.17 18.49Q72.56 18.49 72.16 18.26Q71.77 18.02 71.52 17.68Q71.27 17.34 71.17 16.93Q71.06 16.52 71.09 16.17L71.09 16.17Q71.11 15.89 71.24 15.57Q71.37 15.26 71.54 14.92Q71.72 14.58 71.92 14.24Q72.12 13.90 72.28 13.57L72.28 13.57Q72.68 12.89 72.93 12.41Q73.17 11.93 73.17 11.60L73.17 11.60Q73.17 11.39 73.08 11.23Q72.98 11.06 72.77 11.06L72.77 11.06Q72.63 11.06 72.57 11.07Q72.52 11.09 72.46 11.09Q72.40 11.09 72.29 11.10Q72.19 11.11 71.98 11.11L71.98 11.11Q71.67 11.11 71.46 11.02Q71.25 10.92 71.06 10.88L71.06 10.88Q70.97 11.04 70.64 11.58Q70.31 12.12 69.88 12.84Q69.45 13.57 68.96 14.37Q68.48 15.16 68.06 15.86Q67.64 16.55 67.35 17.03Q67.05 17.51 66.98 17.60ZM86.27 11.79L86.27 11.79Q86.37 11.65 86.52 11.61Q86.67 11.58 86.77 11.65Q86.86 11.72 86.87 11.88Q86.88 12.05 86.74 12.33L86.74 12.33Q86.27 13.22 85.51 14.25Q84.75 15.28 83.91 16.18Q83.06 17.09 82.27 17.67Q81.47 18.26 80.93 18.26L80.93 18.26Q80.16 18.26 79.64 17.95Q79.13 17.65 78.83 17.20Q78.54 16.76 78.42 16.23Q78.30 15.70 78.35 15.26L78.35 15.26Q78.38 14.88 78.52 13.91Q78.66 12.94 78.89 11.66Q79.13 10.38 79.42 8.92Q79.71 7.45 80.04 6.09L80.04 6.09Q79.64 6.14 79.24 6.19Q78.84 6.23 78.52 6.23L78.52 6.23Q77.77 6.23 77.10 6.06Q76.43 5.88 76.10 5.72L76.10 5.72Q75.91 5.63 75.94 5.45Q75.96 5.27 76.08 5.10Q76.20 4.92 76.37 4.79Q76.55 4.66 76.69 4.66L76.69 4.66Q77.13 4.71 77.65 4.75Q78.16 4.78 78.77 4.76L78.77 4.76Q79.22 4.73 79.63 4.69Q80.04 4.64 80.44 4.57L80.44 4.57Q80.74 3.45 81.04 2.61Q81.33 1.78 81.56 1.45L81.56 1.45Q81.63 1.34 81.88 1.25Q82.13 1.17 82.41 1.14Q82.69 1.10 82.95 1.14Q83.20 1.17 83.32 1.31L83.32 1.31Q83.44 1.50 83.41 2.27Q83.39 3.05 83.16 4.24L83.16 4.24Q84.14 4.24 84.90 4.35Q85.66 4.45 86.20 4.58Q86.74 4.71 87.07 4.84Q87.40 4.97 87.56 5.02L87.56 5.02Q87.73 5.06 87.74 5.25Q87.75 5.44 87.67 5.64Q87.59 5.84 87.40 5.98Q87.21 6.12 86.98 6.07L86.98 6.07Q86.74 6.05 86.45 5.98Q86.16 5.91 85.75 5.86Q85.34 5.81 84.77 5.77Q84.21 5.72 83.46 5.72L83.46 5.72Q83.32 5.72 83.14 5.73Q82.97 5.74 82.78 5.74L82.78 5.74Q82.69 6.12 82.61 6.48Q82.52 6.84 82.38 7.24L82.38 7.24Q82.08 8.18 81.68 9.28L81.68 9.28Q81.33 10.24 80.84 11.48Q80.34 12.73 79.73 14.13L79.73 14.13Q79.59 15.14 79.77 15.67Q79.95 16.20 80.20 16.43L80.20 16.43Q80.51 16.69 80.95 16.71L80.95 16.71Q81.30 16.76 81.81 16.46Q82.31 16.17 82.85 15.68Q83.39 15.19 83.94 14.60Q84.49 14.02 84.96 13.45Q85.43 12.89 85.78 12.43Q86.13 11.98 86.27 11.79ZM95.48 12.84L95.48 12.84Q94.78 13.88 93.89 14.85Q93 15.82 92.00 16.58Q91.01 17.34 89.96 17.81Q88.92 18.28 87.94 18.28L87.94 18.28Q87.42 18.28 86.82 18.04Q86.23 17.79 85.73 17.27Q85.24 16.76 84.95 15.94Q84.66 15.12 84.77 13.95L84.77 13.95Q84.87 12.98 85.37 11.92Q85.88 10.85 86.61 9.96Q87.35 9.07 88.28 8.48Q89.20 7.90 90.14 7.90L90.14 7.90Q91.03 7.90 91.43 8.34Q91.83 8.79 91.78 9.45L91.78 9.45Q91.71 10.17 91.37 10.78Q91.03 11.39 90.56 11.88Q90.09 12.38 89.57 12.77Q89.04 13.17 88.57 13.50L88.57 13.50Q88.05 13.85 87.59 14.17Q87.12 14.48 86.77 14.74L86.77 14.74Q86.79 15.33 86.98 15.73Q87.16 16.13 87.45 16.37Q87.73 16.62 88.09 16.72Q88.45 16.83 88.83 16.83L88.83 16.83Q89.63 16.83 90.49 16.32Q91.36 15.82 92.19 15.11Q93.02 14.39 93.74 13.62Q94.45 12.84 94.92 12.28L94.92 12.28Q95.09 12.09 95.26 12.06Q95.44 12.02 95.54 12.11Q95.65 12.19 95.65 12.39Q95.65 12.59 95.48 12.84ZM89.48 9.23L89.48 9.23Q89.20 9.23 88.82 9.52Q88.43 9.80 88.05 10.32Q87.68 10.85 87.35 11.61Q87.02 12.38 86.86 13.36L86.86 13.36Q87.14 13.15 87.47 12.93Q87.80 12.70 88.13 12.45L88.13 12.45Q89.13 11.67 89.53 11.09Q89.93 10.50 89.98 10.08L89.98 10.08Q90.02 9.63 89.88 9.43Q89.74 9.23 89.48 9.23Z" transform="translate(0, 50.135)"></path></svg>